<svg width="44" height="61" viewBox="0 0 44 61" fill="none" xmlns="http://www.w3.org/2000/svg">
<path d="M0 20.8066V36.2521C0 36.2521 0 36.2521 0 36.2602C0 36.2683 0 36.2602 0 36.2683V59.5213C0 59.9649 0.409086 60.3279 0.909079 60.3279H18.8725H26.2905H34.1722H41.5903C42.0903 60.3279 42.4994 59.9649 42.4994 59.5213V38.6647C42.4994 38.2211 42.2085 39.3574 41.7085 39.3574C41.2085 39.3574 40.6812 38.9138 40.6812 39.3574V58.7148H35.0813V53.093C35.0813 50.7218 32.9086 48.786 30.2268 48.786C27.5451 48.786 25.3724 50.7137 25.3724 53.093V58.7148H19.7724V39.3574H21.6542V41.5109C21.6542 41.9545 22.0633 42.3174 22.5633 42.3174H27.3723C27.8723 42.3174 28.2814 41.9545 28.2814 41.5109V39.3574H32.1814V41.5109C32.1814 41.9545 32.5904 42.3174 33.0904 42.3174H37.8995C38.3994 42.3174 38.8085 41.9545 38.8085 41.5109V39.3574H41.5994C42.0994 39.3574 42.5085 38.9944 42.5085 38.5508C42.5085 38.1072 42.0994 37.7443 41.5994 37.7443H37.8995C37.3995 37.7443 36.9904 38.1072 36.9904 38.5508V40.7043H33.9995V38.5508C33.9995 38.1072 33.5904 37.7443 33.0904 37.7443H27.3723C26.8723 37.7443 26.4633 38.1072 26.4633 38.5508V40.7043H23.4724V38.5508C23.4724 38.1072 23.0633 37.7443 22.5633 37.7443H19.7724V20.8066C19.7724 20.363 19.3634 20 18.8634 20H15.727C15.2271 20 14.818 20.363 14.818 20.8066V22.6858H12.7362V20.8066C12.7362 20.363 12.3271 20 11.8271 20H7.92716C7.42717 20 7.01808 20.363 7.01808 20.8066V22.6858H4.93629V20.8066C4.93629 20.363 4.52721 20 4.02721 20H0.909079C0.409086 20 0 20.363 0 20.8066ZM27.2087 53.093C27.2087 51.609 28.5723 50.3991 30.245 50.3991C31.9177 50.3991 33.2813 51.609 33.2813 53.093V58.7148H27.2178V53.093H27.2087ZM17.9634 58.7148L18.5 59.5213L17.9634 35.4536V58.7148ZM3.13632 21.6131V23.4924C3.13632 23.936 3.5454 24.299 4.04539 24.299H7.94534C8.44533 24.299 8.85442 23.936 8.85442 23.4924V21.6131H10.9362V23.4924C10.9362 23.936 11.3453 24.299 11.8453 24.299H15.7452C16.2452 24.299 16.6543 23.936 16.6543 23.4924V21.6131H17.9725V27.5574L17.9634 35.4536L18.5 59.5213L1.81816 24.299V21.6131H3.13632Z" fill="white"/>
<path d="M6.33457 0H0V15H6.33457V0Z" fill="#324095"/>
<path d="M12.6691 0H6.33456V15H12.6691V0Z" fill="#F4F4F4"/>
<path d="M19 0H12.6654V15H19V0Z" fill="#D81E34"/>
</svg>
