<svg width="44" height="61" fill="none" xmlns="http://www.w3.org/2000/svg"><path d="M0 20.807V59.52c0 .444.41.807.91.807h40.68c.5 0 .91-.363.91-.807V38.665c0-.444-.291.692-.791.692s-1.028-.443-1.028 0v19.358h-5.6v-5.622c0-2.371-2.172-4.307-4.854-4.307s-4.855 1.928-4.855 4.307v5.622h-5.6V39.357h1.882v2.154c0 .444.41.806.91.806h4.808c.5 0 .91-.362.91-.806v-2.154h3.9v2.154c0 .444.408.806.908.806h4.81c.5 0 .909-.362.909-.806v-2.154h2.79c.5 0 .91-.363.91-.806 0-.444-.41-.807-.91-.807h-3.7c-.5 0-.909.363-.909.807v2.153H34v-2.153c0-.444-.41-.807-.91-.807h-5.718c-.5 0-.909.363-.909.807v2.153h-2.99v-2.153c0-.444-.41-.807-.91-.807h-2.79V20.807c0-.444-.41-.807-.91-.807h-3.136c-.5 0-.909.363-.909.807v1.879h-2.082v-1.88c0-.443-.409-.806-.909-.806h-3.9c-.5 0-.909.363-.909.807v1.879H4.936v-1.88c0-.443-.409-.806-.909-.806H.91c-.5 0-.909.363-.909.807zm27.209 32.286c0-1.484 1.363-2.694 3.036-2.694s3.036 1.21 3.036 2.694v5.622h-6.063v-5.622h-.01zm-9.246 5.622l.537.806-.537-24.067v23.26zM3.136 21.613v1.88c0 .443.41.806.91.806h3.9c.5 0 .908-.363.908-.807v-1.879h2.082v1.88c0 .443.41.806.91.806h3.9c.5 0 .908-.363.908-.807v-1.879h1.319v5.944l-.01 7.897.537 24.067L1.818 24.3v-2.686h1.318z" fill="#fff"/><path d="M6.335 0H0v15h6.335V0z" fill="#324095"/><path d="M12.67 0H6.334v15h6.334V0z" fill="#F4F4F4"/><path d="M19 0h-6.335v15H19V0z" fill="#D81E34"/></svg>